<svg width="279" height="283" viewBox="0 0 279 283" fill="none" xmlns="http://www.w3.org/2000/svg">
<circle cx="80.5" cy="201.5" r="21.5" fill="#C4C4C4"/>
<circle cx="80.5" cy="201.5" r="21.5" fill="#05807C" fill-opacity="0.8"/>
<circle cx="80.5" cy="261.5" r="21.5" fill="#C4C4C4"/>
<circle cx="80.5" cy="261.5" r="21.5" fill="#05807C" fill-opacity="0.8"/>
<circle cx="21.5" cy="201.5" r="21.5" fill="#C4C4C4"/>
<circle cx="21.5" cy="201.5" r="21.5" fill="#05807C" fill-opacity="0.8"/>
<circle cx="21.5" cy="261.5" r="21.5" fill="#C4C4C4"/>
<circle cx="21.5" cy="261.5" r="21.5" fill="#05807C" fill-opacity="0.8"/>
<circle cx="80.5" cy="201.5" r="21.5" fill="#C4C4C4"/>
<circle cx="80.5" cy="201.5" r="21.5" fill="#05807C" fill-opacity="0.8"/>
<circle cx="80.5" cy="261.5" r="21.5" fill="#C4C4C4"/>
<circle cx="80.5" cy="261.5" r="21.5" fill="#05807C" fill-opacity="0.8"/>
<circle cx="21.5" cy="201.5" r="21.5" fill="#C4C4C4"/>
<circle cx="21.5" cy="201.5" r="21.5" fill="#05807C" fill-opacity="0.8"/>
<circle cx="21.5" cy="261.5" r="21.5" fill="#C4C4C4"/>
<circle cx="21.5" cy="261.5" r="21.5" fill="#05807C" fill-opacity="0.8"/>
<circle cx="80.5" cy="141.5" r="21.5" fill="#C4C4C4"/>
<circle cx="80.5" cy="141.5" r="21.5" fill="#05807C" fill-opacity="0.8"/>
<circle cx="21.5" cy="141.5" r="21.5" fill="#C4C4C4"/>
<circle cx="21.5" cy="141.5" r="21.5" fill="#05807C" fill-opacity="0.8"/>
<circle cx="80.5" cy="141.5" r="21.5" fill="#C4C4C4"/>
<circle cx="80.5" cy="141.5" r="21.5" fill="#05807C" fill-opacity="0.8"/>
<circle cx="21.5" cy="141.5" r="21.5" fill="#C4C4C4"/>
<circle cx="21.5" cy="141.5" r="21.5" fill="#05807C" fill-opacity="0.8"/>
<circle cx="80.5" cy="81.5" r="21.5" fill="#C4C4C4"/>
<circle cx="80.5" cy="81.5" r="21.5" fill="#05807C" fill-opacity="0.8"/>
<circle cx="21.5" cy="81.5" r="21.5" fill="#C4C4C4"/>
<circle cx="21.5" cy="81.5" r="21.5" fill="#05807C" fill-opacity="0.8"/>
<circle cx="80.5" cy="81.5" r="21.5" fill="#C4C4C4"/>
<circle cx="80.5" cy="81.5" r="21.5" fill="#05807C" fill-opacity="0.8"/>
<circle cx="21.5" cy="81.5" r="21.5" fill="#C4C4C4"/>
<circle cx="21.5" cy="81.5" r="21.5" fill="#05807C" fill-opacity="0.8"/>
<circle cx="80.5" cy="21.5" r="21.5" fill="#C4C4C4"/>
<circle cx="80.5" cy="21.5" r="21.5" fill="#05807C" fill-opacity="0.8"/>
<circle cx="21.5" cy="21.5" r="21.5" fill="#C4C4C4"/>
<circle cx="21.5" cy="21.5" r="21.5" fill="#05807C" fill-opacity="0.8"/>
<circle cx="80.5" cy="21.5" r="21.5" fill="#C4C4C4"/>
<circle cx="80.5" cy="21.5" r="21.5" fill="#05807C" fill-opacity="0.8"/>
<circle cx="21.5" cy="21.5" r="21.5" fill="#C4C4C4"/>
<circle cx="21.5" cy="21.5" r="21.5" fill="#05807C" fill-opacity="0.8"/>
<circle cx="80.5" cy="201.5" r="21.5" fill="#C4C4C4"/>
<circle cx="80.5" cy="201.5" r="21.5" fill="#05807C" fill-opacity="0.8"/>
<circle cx="80.5" cy="261.5" r="21.5" fill="#C4C4C4"/>
<circle cx="80.5" cy="261.5" r="21.5" fill="#05807C" fill-opacity="0.8"/>
<circle cx="21.5" cy="201.5" r="21.5" fill="#C4C4C4"/>
<circle cx="21.5" cy="201.5" r="21.5" fill="#05807C" fill-opacity="0.8"/>
<circle cx="21.5" cy="261.5" r="21.5" fill="#C4C4C4"/>
<circle cx="21.5" cy="261.5" r="21.5" fill="#05807C" fill-opacity="0.8"/>
<circle cx="80.5" cy="201.5" r="21.5" fill="#C4C4C4"/>
<circle cx="80.5" cy="201.5" r="21.5" fill="#05807C" fill-opacity="0.8"/>
<circle cx="80.5" cy="261.5" r="21.5" fill="#C4C4C4"/>
<circle cx="80.5" cy="261.5" r="21.5" fill="#05807C" fill-opacity="0.8"/>
<circle cx="21.5" cy="201.5" r="21.5" fill="#C4C4C4"/>
<circle cx="21.5" cy="201.5" r="21.5" fill="#05807C" fill-opacity="0.8"/>
<circle cx="21.5" cy="261.5" r="21.5" fill="#C4C4C4"/>
<circle cx="21.5" cy="261.5" r="21.5" fill="#05807C" fill-opacity="0.8"/>
<circle cx="80.5" cy="141.5" r="21.5" fill="#C4C4C4"/>
<circle cx="80.5" cy="141.5" r="21.5" fill="#05807C" fill-opacity="0.8"/>
<circle cx="21.5" cy="141.5" r="21.5" fill="#C4C4C4"/>
<circle cx="21.5" cy="141.5" r="21.5" fill="#05807C" fill-opacity="0.8"/>
<circle cx="80.5" cy="141.5" r="21.5" fill="#C4C4C4"/>
<circle cx="80.5" cy="141.5" r="21.5" fill="#05807C" fill-opacity="0.8"/>
<circle cx="21.5" cy="141.5" r="21.5" fill="#C4C4C4"/>
<circle cx="21.5" cy="141.5" r="21.5" fill="#05807C" fill-opacity="0.8"/>
<circle cx="80.5" cy="81.5" r="21.5" fill="#C4C4C4"/>
<circle cx="80.5" cy="81.5" r="21.5" fill="#05807C" fill-opacity="0.8"/>
<circle cx="21.5" cy="81.5" r="21.5" fill="#C4C4C4"/>
<circle cx="21.5" cy="81.5" r="21.5" fill="#05807C" fill-opacity="0.8"/>
<circle cx="80.5" cy="81.5" r="21.5" fill="#C4C4C4"/>
<circle cx="80.5" cy="81.5" r="21.5" fill="#05807C" fill-opacity="0.8"/>
<circle cx="21.5" cy="81.5" r="21.5" fill="#C4C4C4"/>
<circle cx="21.5" cy="81.5" r="21.5" fill="#05807C" fill-opacity="0.8"/>
<circle cx="80.5" cy="21.5" r="21.5" fill="#C4C4C4"/>
<circle cx="80.5" cy="21.5" r="21.5" fill="#05807C" fill-opacity="0.8"/>
<circle cx="21.5" cy="21.5" r="21.5" fill="#C4C4C4"/>
<circle cx="21.5" cy="21.5" r="21.5" fill="#05807C" fill-opacity="0.8"/>
<circle cx="80.5" cy="21.5" r="21.5" fill="#C4C4C4"/>
<circle cx="80.5" cy="21.5" r="21.5" fill="#05807C" fill-opacity="0.8"/>
<circle cx="21.5" cy="21.5" r="21.5" fill="#C4C4C4"/>
<circle cx="21.5" cy="21.5" r="21.5" fill="#05807C" fill-opacity="0.8"/>
<circle cx="139.5" cy="201.5" r="21.5" fill="#C4C4C4"/>
<circle cx="139.5" cy="201.5" r="21.5" fill="#05807C" fill-opacity="0.8"/>
<circle cx="139.5" cy="261.5" r="21.5" fill="#C4C4C4"/>
<circle cx="139.5" cy="261.5" r="21.5" fill="#05807C" fill-opacity="0.8"/>
<circle cx="139.5" cy="141.5" r="21.5" fill="#C4C4C4"/>
<circle cx="139.5" cy="141.5" r="21.5" fill="#05807C" fill-opacity="0.8"/>
<circle cx="139.5" cy="81.5" r="21.5" fill="#C4C4C4"/>
<circle cx="139.5" cy="81.5" r="21.5" fill="#05807C" fill-opacity="0.8"/>
<circle cx="139.5" cy="21.5" r="21.5" fill="#C4C4C4"/>
<circle cx="139.5" cy="21.5" r="21.5" fill="#05807C" fill-opacity="0.8"/>
<circle cx="139.5" cy="201.5" r="21.5" fill="#C4C4C4"/>
<circle cx="139.5" cy="201.5" r="21.5" fill="#05807C" fill-opacity="0.8"/>
<circle cx="139.5" cy="261.5" r="21.5" fill="#C4C4C4"/>
<circle cx="139.5" cy="261.5" r="21.5" fill="#05807C" fill-opacity="0.8"/>
<circle cx="139.5" cy="141.5" r="21.5" fill="#C4C4C4"/>
<circle cx="139.5" cy="141.5" r="21.5" fill="#05807C" fill-opacity="0.8"/>
<circle cx="139.5" cy="81.5" r="21.5" fill="#C4C4C4"/>
<circle cx="139.5" cy="81.5" r="21.5" fill="#05807C" fill-opacity="0.8"/>
<circle cx="139.5" cy="21.5" r="21.5" fill="#C4C4C4"/>
<circle cx="139.5" cy="21.5" r="21.5" fill="#05807C" fill-opacity="0.8"/>
<circle cx="198.5" cy="201.5" r="21.5" fill="#C4C4C4"/>
<circle cx="198.5" cy="201.5" r="21.5" fill="#05807C" fill-opacity="0.8"/>
<circle cx="198.5" cy="261.5" r="21.5" fill="#C4C4C4"/>
<circle cx="198.5" cy="261.5" r="21.5" fill="#05807C" fill-opacity="0.8"/>
<circle cx="198.5" cy="141.5" r="21.5" fill="#C4C4C4"/>
<circle cx="198.5" cy="141.5" r="21.5" fill="#05807C" fill-opacity="0.8"/>
<circle cx="198.5" cy="81.5" r="21.5" fill="#C4C4C4"/>
<circle cx="198.5" cy="81.5" r="21.5" fill="#05807C" fill-opacity="0.8"/>
<circle cx="198.5" cy="21.5" r="21.5" fill="#C4C4C4"/>
<circle cx="198.5" cy="21.5" r="21.5" fill="#05807C" fill-opacity="0.8"/>
<circle cx="198.5" cy="201.5" r="21.5" fill="#C4C4C4"/>
<circle cx="198.5" cy="201.5" r="21.5" fill="#05807C" fill-opacity="0.8"/>
<circle cx="198.5" cy="261.5" r="21.5" fill="#C4C4C4"/>
<circle cx="198.5" cy="261.5" r="21.5" fill="#05807C" fill-opacity="0.8"/>
<circle cx="198.5" cy="141.5" r="21.5" fill="#C4C4C4"/>
<circle cx="198.5" cy="141.5" r="21.5" fill="#05807C" fill-opacity="0.8"/>
<circle cx="198.5" cy="81.5" r="21.5" fill="#C4C4C4"/>
<circle cx="198.5" cy="81.5" r="21.5" fill="#05807C" fill-opacity="0.8"/>
<circle cx="198.5" cy="21.5" r="21.5" fill="#C4C4C4"/>
<circle cx="198.5" cy="21.5" r="21.5" fill="#05807C" fill-opacity="0.8"/>
<circle cx="257.5" cy="201.5" r="21.5" fill="#C4C4C4"/>
<circle cx="257.5" cy="201.5" r="21.5" fill="#05807C" fill-opacity="0.8"/>
<circle cx="257.5" cy="261.5" r="21.5" fill="#C4C4C4"/>
<circle cx="257.5" cy="261.5" r="21.5" fill="#05807C" fill-opacity="0.8"/>
<circle cx="257.5" cy="141.5" r="21.5" fill="#C4C4C4"/>
<circle cx="257.5" cy="141.5" r="21.5" fill="#05807C" fill-opacity="0.8"/>
<circle cx="257.5" cy="81.5" r="21.5" fill="#C4C4C4"/>
<circle cx="257.5" cy="81.5" r="21.5" fill="#05807C" fill-opacity="0.8"/>
<circle cx="257.5" cy="21.5" r="21.5" fill="#C4C4C4"/>
<circle cx="257.5" cy="21.5" r="21.5" fill="#05807C" fill-opacity="0.8"/>
<circle cx="257.5" cy="201.5" r="21.5" fill="#C4C4C4"/>
<circle cx="257.5" cy="201.5" r="21.5" fill="#05807C" fill-opacity="0.8"/>
<circle cx="257.5" cy="261.5" r="21.5" fill="#C4C4C4"/>
<circle cx="257.5" cy="261.5" r="21.5" fill="#05807C" fill-opacity="0.8"/>
<circle cx="257.5" cy="141.5" r="21.5" fill="#C4C4C4"/>
<circle cx="257.5" cy="141.5" r="21.5" fill="#05807C" fill-opacity="0.8"/>
<circle cx="257.5" cy="81.5" r="21.5" fill="#C4C4C4"/>
<circle cx="257.5" cy="81.5" r="21.5" fill="#05807C" fill-opacity="0.8"/>
<circle cx="257.5" cy="21.5" r="21.5" fill="#C4C4C4"/>
<circle cx="257.5" cy="21.5" r="21.5" fill="#05807C" fill-opacity="0.8"/>
</svg>
