<svg width="50" height="50" viewBox="0 0 50 50" fill="none" xmlns="http://www.w3.org/2000/svg">
<path d="M20.925 47.62C22.557 47.62 23.88 46.297 23.88 44.665C23.88 43.033 22.557 41.71 20.925 41.71C19.293 41.71 17.97 43.033 17.97 44.665C17.97 46.297 19.293 47.62 20.925 47.62Z" fill="#05807C"/>
<path d="M35.035 47.62C36.667 47.62 37.99 46.297 37.99 44.665C37.99 43.033 36.667 41.71 35.035 41.71C33.403 41.71 32.08 43.033 32.08 44.665C32.08 46.297 33.403 47.62 35.035 47.62Z" fill="#05807C"/>
<path d="M41.755 23.67C41.125 23.04 40.23 22.72 39.085 22.72H29.375C28.38 22.72 27.565 23.025 26.935 23.64C26.305 24.255 25.985 25.25 25.985 26.625C25.985 27.39 26.09 28.12 26.3 28.81C26.51 29.5 26.73 30.055 26.96 30.475H33.105V35.875C32.76 36.065 32.26 36.24 31.61 36.39C30.96 36.545 30.21 36.62 29.37 36.62C28.07 36.62 26.84 36.42 25.695 36.015C24.545 35.61 23.53 35 22.65 34.175C21.77 33.35 21.07 32.3 20.555 31.015C20.04 29.73 19.78 28.21 19.78 26.45C19.78 25.86 19.82 25.265 19.965 24.69C20.06 24.32 20.18 23.955 20.32 23.595C20.735 22.54 21.34 21.565 22.065 20.7C22.445 20.245 22.865 19.82 23.31 19.43C28.09 15.195 27 10.985 26.305 9.37C23.755 3.425 14.685 2.105 10.935 2.425C7.77499 2.69 5.80999 5.9 6.31499 8.9C6.40999 9.46 6.58999 10 6.83999 10.51C6.90999 10.65 7.16499 11.33 7.32499 11.365C7.32999 11.365 9.16999 11.745 11.53 12.245C12.455 12.445 13.96 12.83 14.995 13.105C14.235 13.91 13.535 14.77 12.905 15.68C12.35 16.48 11.855 17.32 11.42 18.195C11.045 18.95 10.715 19.73 10.44 20.53C10.21 21.2 10.01 21.88 9.85499 22.57C9.73499 23.105 9.63499 23.65 9.56499 24.195C9.51999 24.56 9.48499 24.925 9.46999 25.29C9.44999 25.735 9.44499 26.185 9.44499 26.63C9.44499 29.615 9.95999 32.24 10.995 34.5C12.03 36.76 13.435 38.645 15.215 40.16C15.565 40.455 15.935 40.73 16.31 40.995C17.395 39.64 19.055 38.765 20.92 38.765C24.135 38.765 26.755 41.35 26.82 44.555C27.58 44.62 28.345 44.66 29.135 44.665C29.135 41.41 31.785 38.765 35.04 38.765C37.4 38.765 39.44 40.16 40.38 42.17C41.13 41.695 41.705 41.21 42.075 40.705C42.495 40.13 42.705 39.25 42.705 38.065V26.34C42.705 25.19 42.385 24.3 41.755 23.67Z" fill="#05807C"/>
</svg>
